<?xml version="1.0" encoding="utf-8"?>
<!-- Generator: Adobe Illustrator 28.3.0, SVG Export Plug-In . SVG Version: 6.00 Build 0)  -->
<svg version="1.1" id="Layer_1" xmlns="http://www.w3.org/2000/svg" xmlns:xlink="http://www.w3.org/1999/xlink" x="0px" y="0px"
	 viewBox="0 0 181.9 220.26" style="enable-background:new 0 0 181.9 220.26;" xml:space="preserve">
<style type="text/css">
	.st0{fill:#FFFFFF;}
	.st1{clip-path:url(#SVGID_00000122686607748250103110000015117241621616792223_);fill:#F36F21;}
	.st2{clip-path:url(#SVGID_00000122686607748250103110000015117241621616792223_);fill:#231F20;}
</style>
<polygon class="st0" points="140.97,0 36.57,18.93 32.35,90.48 0,109.6 0.07,184.46 27.77,168.09 24.69,220.26 152.67,197.06 
	146.78,97.75 181.91,76.99 181.88,51.16 164.81,61.25 164.76,12.22 142.48,25.39 "/>
<g>
	<defs>
		<rect id="SVGID_1_" width="181.9" height="220.26"/>
	</defs>
	<clipPath id="SVGID_00000101783752909843978060000008475279553488383364_">
		<use xlink:href="#SVGID_1_"  style="overflow:visible;"/>
	</clipPath>
	<path style="clip-path:url(#SVGID_00000101783752909843978060000008475279553488383364_);fill:#F36F21;" d="M86.96,164.92
		c-6.99,0-12.68,5.69-12.68,12.69c0,6.99,5.69,12.68,12.68,12.68c7,0,12.69-5.69,12.69-12.68
		C99.65,170.61,93.96,164.92,86.96,164.92"/>
	<path style="clip-path:url(#SVGID_00000101783752909843978060000008475279553488383364_);fill:#231F20;" d="M56.81,76.14
		L56.81,76.14l13.22-7.81c7.27-4.3,12.68-6,17.02-5.33c0.6,0.09,1.37,0.27,2.2,0.6l-0.01-6.63l45.91-27.13l-0.59-21.92L42.72,24.57
		l-2.78,61.54L56.81,76.14z"/>
	<path style="clip-path:url(#SVGID_00000101783752909843978060000008475279553488383364_);fill:#231F20;" d="M103.7,169.89
		c0.16,0.57,0.28,1.15,0.37,1.76c0.62,1.82,0.97,3.75,0.97,5.78c0,10.01-8.15,18.16-18.17,18.16c-9.64,0-17.52-7.55-18.11-17.04
		c-9.98,1.7-18.02,2.79-18.02,2.79s-2.09-17.93,0.09-18.88c2.18-0.96,54.49-9.88,54.49-9.88l25.48-44.99l-96.96,57.03l-2.28,47.93
		l114.16-20.7l-5.26-86.65C120.14,141.08,105.11,167.55,103.7,169.89"/>
	<polygon style="clip-path:url(#SVGID_00000101783752909843978060000008475279553488383364_);fill:#231F20;" points="30.92,98.75 
		47.61,88.88 38.35,122.26 49.6,148.67 32.39,158.84 23.31,134.67 23.34,164.19 6.83,173.95 6.77,113.02 23.18,103.32 23.21,127.69 
			"/>
	<path style="clip-path:url(#SVGID_00000101783752909843978060000008475279553488383364_);fill:#231F20;" d="M51.21,147.72
		l-0.06-60.93l22.5-13.3c5.88-3.48,10.24-5,13.07-4.57c2.83,0.43,4.25,3.18,4.26,8.26v0.65c0,0.89,0,1.56,0,1.99
		c0,0.43-0.06,1.14-0.16,2.12c-0.11,0.98-0.27,1.8-0.47,2.44c-0.2,0.65-0.51,1.47-0.92,2.48c-0.41,1.01-0.91,1.93-1.51,2.77
		c-0.6,0.84-1.35,1.76-2.26,2.75c-0.91,1-1.96,1.96-3.16,2.9c1.73-0.69,3.21-0.99,4.43-0.9c1.23,0.09,2.16,0.4,2.79,0.94
		c0.63,0.53,1.13,1.36,1.49,2.47s0.58,2.1,0.64,2.95c0.06,0.86,0.1,1.91,0.1,3.16c0,3.21-0.27,6.13-0.82,8.75
		c-0.55,2.62-1.5,5.23-2.85,7.83c-1.35,2.6-3.23,5.05-5.63,7.35c-2.4,2.3-5.38,4.5-8.94,6.6L51.21,147.72z M67.4,100.15l3.39-2.01
		c0.82-0.48,1.49-1.02,2-1.61c0.52-0.59,0.89-1.21,1.11-1.86c0.22-0.65,0.36-1.21,0.42-1.67c0.06-0.46,0.09-0.98,0.09-1.57
		l-0.01-6.04c0-1.94-1.18-2.21-3.54-0.82l-3.49,2.06L67.4,100.15z M67.41,109.64l0.02,17.67c0.75-0.4,1.3-0.69,1.65-0.9
		c4.31-2.55,6.46-5.32,6.46-8.33l-0.01-7.61c0-1.94-0.4-3.12-1.21-3.55c-0.8-0.43-2.08-0.13-3.85,0.92L67.41,109.64z"/>
	<polygon style="clip-path:url(#SVGID_00000101783752909843978060000008475279553488383364_);fill:#231F20;" points="112.36,83.91 
		112.38,111.56 95.88,121.32 95.82,60.39 112.32,50.63 112.34,72.4 120.17,67.77 120.15,46.01 136.66,36.25 136.72,97.18 
		120.21,106.94 120.18,79.28 	"/>
	<polygon style="clip-path:url(#SVGID_00000101783752909843978060000008475279553488383364_);fill:#231F20;" points="142.99,93.47 
		142.93,32.54 159.54,22.73 159.58,71.76 176.66,61.67 176.67,73.57 	"/>
</g>
</svg>
